PathFileType	4	(X/Y/Z)	49_2_rein_94_p1_0-202_filt_butterworth.trc
DataRate	CameraRate	NumFrames	NumMarkers	Units	OrigDataRate	OrigDataStartFrame	OrigNumFrames
59.0	59.0	6	27	m	59.0	25	202
Frame#	Time	RHip			RKnee			RAnkle			RBigToe			RSmallToe			RHeel			LHip			LKnee			LAnkle			LBigToe			LSmallToe			LHeel			Neck			Head			Nose			RShoulder			RElbow			RWrist			RThumb			RIndex			RPinky			LShoulder			LElbow			LWrist			LThumb			LIndex			LPinky			
		X1	Y1	Z1	X2	Y2	Z2	X3	Y3	Z3	X4	Y4	Z4	X5	Y5	Z5	X6	Y6	Z6	X7	Y7	Z7	X8	Y8	Z8	X9	Y9	Z9	X10	Y10	Z10	X11	Y11	Z11	X12	Y12	Z12	X13	Y13	Z13	X14	Y14	Z14	X15	Y15	Z15	X16	Y16	Z16	X17	Y17	Z17	X18	Y18	Z18	X19	Y19	Z19	X20	Y20	Z20	X21	Y21	Z21	X22	Y22	Z22	X23	Y23	Z23	X24	Y24	Z24	X25	Y25	Z25	X26	Y26	Z26	X27	Y27	Z27	
25	0.423728813559322	0.38706020927963436	0.5737739619674782	0.9637436557054523	0.3563586728460172	0.0821168931847473	0.9511574747849962	0.33441371385825125	-0.3785015503838421	0.9584629826921715	0.30257370604827516	-0.3653440880827093	0.7557634889396272	0.3716673359438083	-0.3626192218078221	0.7627171096273483	0.32352229677280875	-0.4715567750887416	1.0478834617586776	0.17452001734042816	0.5618238895647998	0.9868914285393267	0.1740985053417329	0.062467707443797704	0.9775336900676503	0.18412236237493348	-0.3680036927564201	0.9703347440133462	0.15574604347517007	-0.3367468075729738	0.7550634483781362	0.1110474986299883	-0.3625452046015072	0.8103672195399527	0.19995839747908511	-0.47505248154345087	1.0470122423288923	0.272198971611364	1.0672807586516642	0.9876890298240852	0.2714102769882114	1.3399293865441404	0.8884077807958187	0.266553250644854	1.1981500128434137	0.8347784287188169	0.4267179564536753	1.0340042697125904	0.9378760153292197	0.5276217448003345	0.7695245724426926	0.9858908153958061	0.3635083848262698	0.5955946303293195	0.8506897026661278	0.24755942739345593	0.5334635795200442	0.8085191169830805	0.24139781902247565	0.49603953102343645	0.8176101943445984	0.2600374517398585	0.49674363847724323	0.8274012062424468	0.10849697083476512	1.026077140818781	0.999626978088281	0.046723514689790156	0.7746070758606959	0.9926252797556511	0.15060673289324722	0.6077814047726444	0.8328503951938331	0.24966362929539188	0.5699158071775707	0.7850458971765064	0.25296317229900256	0.5291148355640732	0.7589864396543534	0.2194693892920319	0.49649976857839984	0.79094319545093	
26	0.4406779661016949	0.3865136292533296	0.5701423227321591	0.9631324473847589	0.35459693476777837	0.08209609372729793	0.9478666149772842	0.33381479151655474	-0.37715409055651966	0.9563627846515538	0.30344043305545804	-0.3634416909196912	0.7536127796872879	0.3716886385265371	-0.3625339011908817	0.7625606554407073	0.3231175520083954	-0.4720515979543862	1.0464612079652094	0.17403069784700703	0.5597369002992352	0.9865083172230662	0.174726403672145	0.0634424193517894	0.974602170812772	0.18418401956856353	-0.36886701114169174	0.9703885496062198	0.1571003297289989	-0.3344173953025173	0.7524995972135174	0.11229172680427985	-0.3590581870544187	0.8066217998482526	0.19979399252345206	-0.4773887308421672	1.047360993111346	0.2716377151841577	1.0667891385905244	0.9897732132145766	0.27139216801550137	1.3399607585563003	0.8884432397977987	0.26650419574643736	1.197517892612316	0.8345322114702973	0.4275562874234492	1.0354491383587006	0.9377408139562877	0.5372533345333604	0.768725456148252	0.99903673798947	0.3735426145334052	0.606301186682599	0.8618936523449692	0.25061783878756	0.551721780569345	0.8161428762084937	0.24436683623398425	0.5090755878562019	0.8245359195740528	0.2721050927352198	0.5037951585017784	0.8357045077503802	0.10842712498730186	1.026516489347313	0.9984385077602933	0.04005787866680092	0.7791689435494893	1.0000413755240494	0.14526150396877124	0.6202309550276269	0.8327497523410101	0.24436332891350887	0.5825410075574934	0.7898943745187715	0.2483075585277824	0.5462644253025616	0.7525544059720033	0.21297381833206716	0.5127746081834957	0.7762937653831049	
27	0.4576271186440678	0.3861412069717975	0.5667091213988111	0.9622042163487852	0.35262616368171484	0.08266499807214822	0.9443418834437772	0.33312588633742957	-0.3754472219628291	0.9535854006615764	0.3041490558564924	-0.3621716102458342	0.752214713942423	0.37168698565219394	-0.3624675191721865	0.7623510786671843	0.32274302711314773	-0.4726189179621786	1.0446827482257428	0.1735307796343072	0.5580217707611842	0.9859462837487118	0.17542374262741137	0.06513794510230947	0.9708357817843953	0.18425987943316147	-0.36981163749060086	0.970441445640973	0.15831636336907695	-0.3319399583868259	0.7495008014161437	0.11313694453434818	-0.3566509904140837	0.8040819769943266	0.199446539523656	-0.479626192702015	1.0474032942718663	0.2712126892545723	1.066254216529104	0.9921307756032431	0.2713750217240988	1.3400356511031648	0.8884597062711274	0.26645961779626315	1.1969705633645507	0.834311028787934	0.42848294422869126	1.0359930307939198	0.939120356989595	0.5478878845358932	0.7690848696733896	1.0119077591881775	0.38648320815586806	0.6190263782818767	0.8720262097024959	0.256205724924472	0.5717191442030685	0.8255443790249488	0.2499423638226845	0.5258657530064457	0.8318284791157443	0.2867037420539904	0.5125720859549139	0.8447036032066436	0.10846164717355303	1.026576727507321	0.9986243036006881	0.032938997964315736	0.7844617227883457	1.006816689564848	0.1390127197930695	0.6347474107388996	0.830712528714044	0.23661005924933887	0.5979072545254105	0.792974124278462	0.24009466346047809	0.5664560181865256	0.7473383234900487	0.20341495400484605	0.5348367013986356	0.7576803195942206	
28	0.4745762711864407	0.3859210969755483	0.5635651789293515	0.9610399843372583	0.3503923386726339	0.08375576572483778	0.9405363539595372	0.33237447851548135	-0.3737743075840472	0.9505130468582267	0.30452993376751203	-0.3616527484162244	0.7516753966836729	0.3715512994669421	-0.36241791721029537	0.7620915386018087	0.32245558115369377	-0.47330782475505534	1.0426335332457306	0.17292686537436328	0.5566808216134815	0.9852265774641733	0.17610583005858974	0.0672985153039809	0.966357738013543	0.18437777865947738	-0.3710799741756187	0.9706033955230045	0.1591174509629488	-0.33005426033078666	0.747071726435146	0.11354321448028046	-0.3554698217136788	0.802884221718877	0.19904265523039846	-0.4817841177454639	1.047080520539294	0.2710914322817296	1.0656633454804478	0.9948130728625154	0.27136090067673724	1.3400977189122492	0.8884437925441386	0.2664202232978471	1.1965404812147906	0.8341336158265185	0.4294150475935007	1.0360331251584112	0.9415172505468088	0.5603084770454554	0.7726761043198731	1.0237039187801424	0.40228090143150097	0.6337142983337412	0.8810845248520804	0.2653178758995971	0.5919153060845916	0.8355968534613847	0.2591923765090466	0.5458818849556571	0.8381326363232307	0.30315692523444093	0.5231687955158156	0.8538556064804277	0.10833113647728705	1.0263652962325875	1.0001775865890588	0.025182967346352114	0.7903282971572094	1.012771180647918	0.13100538134176803	0.6517378743329637	0.8261185953659972	0.22726434156536707	0.6160761059384361	0.7929310837380539	0.2287562639323706	0.5893234071155615	0.7428346974285942	0.19076830395732586	0.5613325377327385	0.737583170309097	
29	0.4915254237288136	0.3858231637610769	0.5607999477189358	0.9597516985777534	0.34786670123921887	0.08532645773100833	0.936450117087543	0.3315840808253924	-0.3723388253809567	0.9474371026426882	0.3043642102071229	-0.36174573598815096	0.7517198776933278	0.3711231779392914	-0.362376626737764	0.7617981791192245	0.3222409445194681	-0.47413705027227493	1.0404942575518492	0.17215405494446157	0.5556427017662213	0.9845367933545263	0.17667167262984776	0.0696609375422062	0.9614677110306358	0.1845483969707587	-0.3726977274497056	0.9709021590899337	0.15926096355337044	-0.3292793173332206	0.7460156109781703	0.11354349591412516	-0.35544897528765745	0.8032937644960244	0.19871492894629753	-0.48390875491685204	1.0465431695622118	0.2713123951182448	1.0650270994494921	0.9977572333432941	0.27135372565026367	1.3400418913110066	0.8883788629811546	0.2663800068605846	1.1961958769239185	0.8340019232781185	0.4302454076765279	1.036008480899281	0.9444240680004563	0.5748894818994515	0.7807853842556894	1.0338436324974616	0.41992286739670437	0.6493799490464816	0.8898675853715301	0.27852336722198456	0.6102568045253747	0.846466124349453	0.27240613504459116	0.5671320279756032	0.8430484309523325	0.3204984363077097	0.5347857169903183	0.8639123667701463	0.10777763048314729	1.0261836420515982	1.0025934165061388	0.01696632256436992	0.7965262035773581	1.0181709742662064	0.12046508296592232	0.6710768186520648	0.8196854787612466	0.21691632136505043	0.6367349630909196	0.7890416994173761	0.21486863408097007	0.6142586593345938	0.7374187831802264	0.17513559436651074	0.5900242744285948	0.7204942905280753	
30	0.5084745762711864	0.3858137533328832	0.5584797386901834	0.9585256571888727	0.34506953050611505	0.0873062480788463	0.9321767912324536	0.3307658655841034	-0.37107566136773734	0.9444206151728095	0.3036075819257653	-0.36211273586917464	0.7519142786505156	0.3703003058061891	-0.36234219244885835	0.7615113915364216	0.3219996363135141	-0.475055383700152	1.0383801848355763	0.17124132794754204	0.5548942266922676	0.9839993191210326	0.17702057951828395	0.07205600073872798	0.9565422612204095	0.18475012517606504	-0.37438907216629275	0.9712153905405934	0.15868098306486805	-0.32969196444185905	0.7465059401972844	0.11326394168115735	-0.3563874116073356	0.8054096542604183	0.19853336056876303	-0.48596697288209456	1.0459898271702346	0.2718399010765405	1.0644104686526705	1.000655922617966	0.2713551873919923	1.3398015066926108	0.8882700150631947	0.2663347393733245	1.195883616839143	0.8339085331952578	0.4308798979283539	1.0360956984720169	0.9475062495722681	0.5911934499788778	0.7932297264297268	1.0416821329617703	0.4376556703691147	0.6645729813071928	0.8987605324078514	0.29560392865991325	0.6251160484924717	0.8591545825667448	0.28901170354831185	0.586735407458052	0.8475955357509171	0.3376095592509386	0.546755680553275	0.8747134138105586	0.10672647807966967	1.0263228073010515	1.0053036293724913	0.008472561820454683	0.8027351456599742	1.023260579219322	0.10724139200370283	0.6919472973220002	0.8130747503234461	0.20564978550571675	0.6594302478446319	0.7813957420454236	0.1994081645638987	0.6403437195991222	0.7300579960182134	0.15703413729852436	0.6189329679759701	0.7095305340575803	
